<?xml version="1.0" encoding="utf-8"?>
<!-- Generator: Adobe Illustrator 26.0.2, SVG Export Plug-In . SVG Version: 6.00 Build 0)  -->
<svg version="1.1" id="shadow_1_" xmlns="http://www.w3.org/2000/svg" xmlns:xlink="http://www.w3.org/1999/xlink" x="0px" y="0px"
	 viewBox="0 0 1200 744.2" style="enable-background:new 0 0 1200 744.2;" xml:space="preserve">
<polygon style="fill:#0C203D;" points="363.2,515.5 360.1,515.1 363,514.6 359.9,489 356.7,509.9 359.8,512 356.5,511.6 
	353.7,530.6 359,533.2 353.6,532 353,535.1 353,535.1 353,535.1 352.8,536 352.8,536 352.3,539.5 352.3,539.5 352,541.1 352,541.1 
	352,541.1 351.5,545 356.9,546.7 351.1,546.4 348.5,564.1 370.4,564.1 "/>
<path style="fill:#0D2B0D;" d="M864.2,630.5l29.9,1.6l-3.6-20.4l-5.5-4.8l4.8,0.3l-3.4-19.6v0c-1.8-1.3-5.8-3.4-5.8-3.4l4.9-2.1
	l-3.2-23l-5,19.9l4.1,4.2l-4.4-2.7l-4.4,18.1l7.1,2.8l-7.4-1.5l-0.5,1.7l8.1,3.4l1.3,5.3l-11.2-2.1l-0.9,4l7.4,2l-7.9-0.7
	L864.2,630.5z"/>
<polygon style="fill:#0D2B0D;" points="903.3,615.5 908.1,597.7 917.2,598.5 908.7,596.3 910.1,590.7 919.5,591.7 919.6,589.4 
	911.1,587.2 912.4,583.2 920.9,584.9 912.7,581.8 917.9,562.6 923,563.4 918.2,561 924,539.9 928,566.3 923.4,566.5 928.3,569.3 
	937.9,619.5 "/>
<polygon style="fill:#0D2B0D;" points="1093,587.6 1095.6,570.8 1104,570.6 1096,569.4 1096.7,564.1 1105.5,564.2 1105.3,562 
	1097.3,560.8 1098.1,557 1106.1,557.8 1098.3,555.7 1101,537.6 1105.8,537.8 1101.2,536 1104.4,516.1 1110.7,540 1106.5,540.6 
	1111.1,540.9 1124.9,586.3 "/>
<polygon style="fill:#0D2B0D;" points="860.7,622.6 853.9,621.8 860.5,621.4 860.3,617.9 860.3,617.9 859.9,611.9 859.9,611.9 
	859.8,611.8 859.5,606.9 858.8,595 854.9,592.8 858.7,591.6 857.6,573.9 852.1,590.4 848.6,600 843.5,613.5 847.6,614 842.1,617.2 
	835.8,633.9 861.6,637.6 "/>
<polygon style="fill:#0D2B0D;" points="969.8,567.5 972,575.1 963.4,578.3 972.8,576.9 980.1,600.7 944.4,604.8 947.8,536.6 
	952.7,535.4 947.9,535.3 948.7,499.5 957.4,527.7 952.8,531.2 958,529.9 965.8,555.6 957.7,560.1 966.4,557.5 968.3,562.8 "/>
<path style="fill:#0D2B0D;" d="M975.1,600.6c1.1-1.7,11.3-67.7,11.3-67.7l9.7-3.8l-8.4-1.4l8.7-4.8l0.4-9.6l-6.5,3.1l8-38.1
	l4.1,29.2l-2-1.9l4.1,29.2l-6.5,4l6.4-0.5l6.1,64.3L975.1,600.6z"/>
<polygon style="fill:#0D2B0D;" points="1089.8,547.3 1091.9,556.4 1081.1,559.6 1092.8,558.7 1099.8,587.6 1055.6,589.4 
	1065.3,508.7 1071.4,507.7 1065.5,507.2 1069.3,464.8 1077.8,499 1071.8,502.7 1078.3,501.7 1085.9,532.9 1075.6,537.5 
	1086.4,535.2 1088.3,541.6 "/>
<polygon style="fill:#0D2B0D;" points="1157.5,572.7 1154.9,586.7 1115.9,584.3 1117.9,575.6 1134.1,506 1140.2,505.6 1134.5,504.5 
	1142.8,463.2 1147.5,497.6 1141.2,500.7 1147.7,500.3 1151.8,531.7 1141.2,535.2 1152.1,534 1153.3,540.5 1154.1,546.2 
	1155.2,555.4 1144.2,557.4 1155.8,557.7 1156.3,561.3 "/>
<path style="fill:#0D2B0D;" d="M1002.8,597.8c1.6-1.9,19.8-89.4,19.8-89.4l14.1-4.2l-12.3-1.7l12.6-5.3l0.5-11.1l-9.4,3.5l11.1-43.7
	l6.3,33.6l-3-2.2l6.3,33.6l-9.5,4.5l9.3-0.5l9.7,74.1L1002.8,597.8z"/>
<path style="fill:#0D2B0D;" d="M558.7,630.5l31.6,0.2l-4.8-21.3l-6.1-4.8l5,0.1l-4.6-20.5v0c-1.9-1.3-6.3-3.3-6.3-3.3l5-2.5l-4.6-22
	l-4.2,21.2l4.5,0.2l-4.7-0.5l-3.7,19.3l7.6,2.6l-7.9-1.2l-0.5,1.9l8.7,3.2l1.7,5.5l-11.9-1.6l-0.7,4.2l7.9,1.7l-8.4-0.3L558.7,630.5
	z"/>
<polygon style="fill:#07182B;" points="593.1,614.3 597.2,595.3 606.9,595.6 597.8,593.8 599,587.8 609,588.4 609,585.9 599.9,584 
	601.1,579.8 610.2,581.1 601.4,578.3 605.8,557.8 611.2,558.3 606.1,556 611.1,533.5 616.7,561.1 611.8,561.6 617,562.1 
	629.7,614.6 "/>
<polygon style="fill:#0D2B0D;" points="537.3,613.3 530.1,612.9 537,612.1 536.6,608.4 536.5,608.4 535.7,602.1 535.7,602.1 
	535.7,601.9 535,596.8 533.2,582.2 529.1,582.3 533.1,580.8 530.8,562.1 526,579.9 523,590.2 518.6,604.8 522.9,605.1 517.4,608.8 
	511.9,626.9 539.2,629 "/>
<polygon style="fill:#0D2B0D;" points="668.1,594.4 669.4,604.6 660,606.9 670.1,604.6 674.6,630.5 636.7,630.2 649.1,559.2 
	654.4,558.5 649.4,557.8 654.8,520.4 660.3,551.1 655,554.1 660.7,553.5 665.5,581.4 656.5,585.1 665.9,583.5 667.2,589.3 "/>
<path style="fill:#0D2B0D;" d="M675.3,636.6c1.1-1.8,8.5-72,8.5-72l10-4.5l-8.9-1l8.9-5.5l-0.1-10.2l-6.7,3.6l6.4-40.6l5.8,30.5
	l-2.2-1.9l5.8,30.5l-6.7,4.6l6.7-0.9l9.7,67.5L675.3,636.6z"/>
<polygon style="fill:#0D2B0D;" points="810.8,596.8 813.5,608.3 802.3,612.2 814.5,608.7 823.4,638.8 776.9,643 783,557.4 
	789.4,556 783.2,555.7 785,510.8 795.7,546.5 789.6,550.7 796.4,549.3 806,581.8 795.3,587.2 806.6,584.1 809,590.9 "/>
<path style="fill:#0D2B0D;" d="M702.9,644.2c1.6-2.1,16.3-95.2,16.3-95.2l14.6-5.2l-13-1.2l13-6.3l-0.1-11.7l-9.7,4.2l9.5-46.6
	l8.4,35.1l-3.3-2.1l8.4,35.1l-9.7,5.2l9.8-1l14.1,77.6L702.9,644.2z"/>
<polygon style="fill:#0D2B0D;" points="411.8,531.6 403.9,530.5 411.4,529.9 405.2,484.5 395.5,521.2 403.2,525.1 394.9,524 
	389.9,543.3 389.3,545.9 389.3,545.9 389.3,545.9 386.3,557.4 396.9,561.4 397.1,561.9 385.7,559.8 383.5,566.7 395.8,569.7 
	387.4,573.3 381.9,572.8 379.5,582.6 393.3,586 378.5,585.1 370.5,616 426.7,618 "/>
<polygon style="fill:#0D2B0D;" points="271.6,534.8 268.4,534.2 271.4,534 269.4,514 265,530 268.1,531.8 264.7,531.3 261.4,544 
	261.4,544 260.1,548.5 260.1,548.5 259.6,550 265.2,551.6 265.1,553.4 258.8,552.7 257.8,557 263.4,558.6 257.3,558.1 253.7,571.6 
	276.7,572.9 "/>
<path style="fill:#0D2B0D;" d="M68.7,547.5l57,4.9l-4.9-39l-10.1-9.4l9.1,0.9l-4.7-37.5v0c-3.3-2.5-10.8-6.8-10.8-6.8l9.5-3.7
	l-4-43.8l-11.4,37.5l7.7,4.5l-8.4-1.6l-10.2,34.2l13.2,5.8L86.6,490l-1.2,3.3l15.1,7l2,10.1l-21.1-4.6l-2.1,7.5l13.9,4.2l-15-1.7
	L68.7,547.5z"/>
<polygon style="fill:#0D2B0D;" points="147.7,558.6 152.5,536.7 160.6,537.4 153.1,535 154.5,528.1 162.8,529.1 163,526.2 
	155.5,523.8 156.8,518.9 164.3,520.7 157.2,517.1 162.3,493.5 166.8,494.3 162.7,491.5 168.5,465.5 171.2,497.8 167.1,498.1 
	171.4,498.9 178.3,560.2 "/>
<polygon style="fill:#0D2B0D;" points="208.3,499 204.6,498.3 208.1,497.9 206,467.1 200.9,491.9 204.4,494.6 200.5,493.9 
	196,516.5 202.1,519.9 195.7,518.2 194.8,521.8 194.8,521.8 194.8,521.8 194.5,522.8 194.6,522.9 193.7,527 193.6,527 193.3,529 
	193.3,529 193.3,529 192.4,533.6 198.8,535.9 191.9,535.3 187.6,556.2 213.8,557.6 "/>
<polygon style="fill:#0D2B0D;" points="300.7,471.9 296,510.9 300.9,511.4 295.7,512.3 284.6,586.5 321.5,585.1 316.7,558.5 
	316.7,558.5 314.8,548.9 314.7,548 314.6,548 313.6,542.7 313.7,542.7 313.3,541.3 311.3,531.1 306.9,505.9 301.4,506.8 
	306.5,503.4 "/>
<polygon style="fill:#0D2B0D;" points="465.1,542.4 457.9,542 464.6,540.9 455.4,497.7 449.7,533.7 456.9,536.9 449.4,536.5 
	445,564.9 445,564.9 443.3,575 443.3,575 442.6,578.5 455.2,580.6 455.4,584.6 441.6,584.5 440.3,594.1 452.9,596.2 439.5,596.5 
	434.9,626.9 485.3,624.2 "/>
<g>
	<path style="fill:#418D41;" d="M1204.1,572.4c-287,8.4-304.6,56.2-410.2,49.8c-106.5-6.5-177.4-6.5-275.3-0.3
		S352.9,589,253.2,559.7C112.8,537.7,0,549.4,0,549.4V744c268.8,3.7,1101.5-1.4,1200,0c0-30.9,0.4-97.9,0-128L1204.1,572.4z"/>
</g>
<path style="fill:#1B4C1B;" d="M0,560c0,0,52.1,3.5,246,65.4c55.5,22.8,220.6,53.6,266.3,49.5C558,670.9,755,638,789.8,647.5
	c34.8,9.5,130.2,35.3,162.5,37.4c37.2,2.5,122,9.4,244.7-21.6l1.7,87L0,749.5V560z"/>
<path style="fill:#BAD188;" d="M303,493.2c5,1.7,11.9,1.8,11.1,0.5s-12.2-4.5-12.2-4.5l3,2.5l-10.7-3.9
	C294.2,487.7,298,491.6,303,493.2z"/>
<path style="fill:#0C203D;" d="M416.7,616.6l-23.3,0.7C408,623.3,416.7,616.6,416.7,616.6z"/>
<path style="fill:#0C203D;" d="M825.8,632.8C825.8,632.8,825.8,632.8,825.8,632.8c0,0-0.1,0-0.1,0
	C825.8,632.8,825.8,632.8,825.8,632.8z"/>
<path style="opacity:0.56;fill:#0C203D;enable-background:new    ;" d="M830.6,633.1c0,0-0.1,0-0.1,0
	C830.6,633.1,830.6,633.1,830.6,633.1C830.6,633.1,830.6,633.1,830.6,633.1z"/>
<path style="opacity:0.56;fill:#0C203D;enable-background:new    ;" d="M830.6,633.1c0,0-0.1,0-0.1,0
	C830.6,633.1,830.6,633.1,830.6,633.1C830.6,633.1,830.6,633.1,830.6,633.1z"/>
<g>
	<rect x="134.2" y="616.3" style="fill:#512F1E;" width="5.6" height="28.2"/>
	<path style="fill:#6B8744;" d="M157.4,622l-8.7-0.3l-32.1-1.3l2.1-16.1l14.5-19.1c-0.2,0.2-8.1,7-13.5,11.6l4.8-36.1l8.5-13.1
		l-7.8,8.3l6-45.4l1.9-2.4l3.9-4.8l-4.2,3.4l-1.2,1l0.5-4.1l3.7-27.9l7.4,50.5l-6.2-2.9l6.5,4.7l7,47.4l-5.2-3.2l-9.4-5.9l10,10
		l5.5,5.5L157.4,622z"/>
	<path style="fill:#BAD188;" d="M150.5,575.2l-5.2-3.2c-3-20.8-7.6-43.4-12.2-64c-0.1-0.5-0.2-0.9-0.3-1.4c-0.2-1-0.5-2.1-0.7-3.1
		l3.7-27.9l7.4,50.5l-6.2-2.9l6.5,4.7L150.5,575.2z"/>
	<path style="fill:#BAD188;" d="M148.7,621.6c0.9-11.8-0.4-27.9-2.8-45.5l5.5,5.5l5.9,40.3L148.7,621.6z"/>
</g>
<g>
	<path style="fill:#6B8744;" d="M254.1,602l-14,0.4l-6.8,0.2l-24.8,0.7l-11.8,0.3l4.7-26.5l11.9-16l9.2-12.4l-8.8,9l-10.8,11.1
		l9-51.4c2.8-2.8,6-5.9,8.9-8.8c4.7-4.7,8.6-8.5,8.9-8.8l-8.5,6.6l-8.4,6.5l9.2-52.6l6.8-5l-6.4,2.8l6.9-39.3l3.5-19.7l3.6,34.1v0
		l5.2,48.9l-3-0.6l-3-0.6l3.1,1.5l3.1,1.6l4.6,43.1l-5.7-2.9l-8.3-4.2l8.4,7.6l6.2,5.5L254.1,602z"/>
	<rect x="224" y="602.6" style="fill:#512F1E;" width="6.3" height="31.7"/>
	<path style="fill:#6B8744;" d="M233.4,602.5l-24.8,0.7l-11.8,0.3l4.7-26.5l11.9-16l9.2-12.4l-8.8,9l-10.8,11.1l9-51.4
		c2.8-2.8,6-5.9,8.9-8.8c4.7-4.7,8.6-8.5,8.9-8.8l-8.5,6.6l-8.4,6.5l9.2-52.6l6.8-5l-6.4,2.8l6.9-39.3
		C231,472.9,233.1,563,233.4,602.5z"/>
	<path style="fill:#BAD188;" d="M241.4,482.2l-3-0.6c-2.6-44.3-5.8-82.4-5.8-82.4l3.6,34.1v0L241.4,482.2z"/>
	<path style="fill:#BAD188;" d="M240.5,524.3c-0.5-13.9-1.3-28.2-2-41.8l3.1,1.6l4.6,43.1L240.5,524.3z"/>
	<path style="fill:#BAD188;" d="M254.1,602l-14,0.4c1.8-16.6,1.6-44.6,0.5-74.7l6.2,5.5L254.1,602z"/>
</g>
<g>
	<path style="fill:#6B8744;" d="M510.5,654.2l-8.7-0.3l-32.1-1.3l2.1-16.1l14.5-19.1c-0.2,0.2-8.1,7-13.5,11.6l4.8-36.1l8.5-13.1
		l-7.8,8.3l6-45.4l1.9-2.4l3.9-4.8l-4.2,3.4l-1.2,1l0.5-4.1l3.7-27.9l7.4,50.5l-6.2-2.9l6.5,4.7l7,47.4l-5.2-3.2l-9.4-5.9l10,10
		l5.5,5.5L510.5,654.2z"/>
	<path style="fill:#BAD188;" d="M503.6,607.4l-5.2-3.2c-3-20.8-7.6-43.4-12.2-64c-0.1-0.5-0.2-0.9-0.3-1.4c-0.2-1-0.5-2.1-0.7-3.1
		l3.7-27.9l7.4,50.5l-6.2-2.9l6.5,4.7L503.6,607.4z"/>
	<path style="fill:#BAD188;" d="M501.8,653.8c0.9-11.8-0.4-27.9-2.8-45.5l5.5,5.5l5.9,40.3L501.8,653.8z"/>
</g>
<g>
	<g>
		<path style="fill:#472212;" d="M635.5,700.3c0,0-20.9-1.6-30.4-2.1c-1.6-0.1-2.9-0.1-3.7-0.1c-0.3,0-0.7,0-1.1,0c0,0,0,0,0,0
			c-5.5,0.2-13.5,2.1-14,2.2c0.6-0.3,15.7-6.7,17.3-7.8c0.3-0.2-2.4,0.5-2.1-1c0.6-2.7,1.1-7,1.6-11.3c0.2-1.4,0.3-2.7,0.5-4
			c0.2-1.8,0.4-3.4,0.6-4.9c0-0.1,0-0.1,0-0.2c0-0.1,0-0.2,0-0.2c0,0,0-0.1,0-0.1c0,0,0-0.1,0-0.1c0,0,0,0,0,0c0,0,0-0.1,0-0.1
			l0-0.1c0.2-1.1,0.3-2,0.5-2.6c0.1-0.3,0.1-0.5,0.2-0.7c0.2-0.5,3.2-3.5,2.8-5.4c0,0,0-0.1,0-0.1c0,0,0,0,0,0
			c-0.1-0.4-0.2-0.8-0.3-1.3c-0.1-0.4-0.2-0.8-0.3-1.2v0c0,0,0-0.1,0-0.1c-0.3-1.2-0.6-2.6-1-4c-0.1-0.3-0.2-0.7-0.3-1
			c-0.8-2.6-1.7-5.5-2.8-8.2c-0.3-0.7-0.6-1.5-0.9-2.2c-0.5-1.2-1-2.4-1.5-3.5c-0.5-1.1-1-2.1-1.6-3.1c0,0,0,0,0,0
			c-0.2-0.3-0.2-0.4-0.2-0.4c-1.6-2.8-3.3-5-5-5.9c-2.7-1.5-7-2.6-11.3-3.5c-1.7-0.3-3.4-0.7-5-0.9c-5.2-0.8-9.4-1.2-9.4-1.2
			s0-0.1,0.1-0.3h0v0c0.4-1,1.8-4.7,2.3-8.5c0.5-4.2,0-8.6-4-10.3c-2-0.8-3.4-1.3-4.5-1.5c-3-0.8-2.9,0.1-2.8,0.4l-6.7-11.7
			c0.3,0.5,5.6,7.8,7.3,8.9c0.3,0.2,0.9,0.5,1.6,0.7h0c2.7,0.9,7.3,1.6,7.3,1.6s3.3,5,4.2,9.7c0,0.2,0.1,0.4,0.1,0.6
			c0.3,1.7,0.2,3.3-0.5,4.5c-0.8,1.3-0.1,2.5,1.3,3.4c2.7,1.7,8,2.7,11.7,3.2c0.6,0.1,1.1,0.1,1.7,0.2c2.3,0.3,4.4,0.4,6.3,0.5
			c1.9,0.1,3.5,0.1,4.6,0.1c0.6,0,1.3-0.6,2-1.5c0.1-0.2,0.3-0.4,0.4-0.6c0.3-0.5,0.7-1.1,1.1-1.7c0.3-0.5,0.6-1.1,0.9-1.7
			c0.2-0.4,0.4-0.8,0.7-1.3c0,0,0,0,0,0c0.4-0.9,0.9-1.9,1.4-2.9c0,0,0-0.1,0-0.1c0-0.1,0.1-0.2,0.1-0.3c0.1-0.1,0.1-0.3,0.2-0.4
			c0,0,0,0,0,0c0,0,0,0,0,0c0.2-0.4,0.4-0.9,0.6-1.3c0-0.1,0.1-0.2,0.1-0.3c0.3-0.8,0.7-1.6,1-2.4c0.3-0.8,0.7-1.6,1-2.5
			c1-2.6,2-5.3,2.8-7.7c0.2-0.5,0.4-1,0.5-1.5c1.6-4.5,2.6-7.8,2.6-7.8l11.7-8.1c0,0-0.3,0.4-0.9,0.9c-1.2,1.4-5.1,8.6-8.9,16.6
			c-2.2,4.6-4.5,9.5-6.3,13.7c-1.6,3.6-2.8,6.6-3.3,8.5c-0.7,2.1-0.9,4.1-0.6,6c0,0.1,0,0.3,0.1,0.4c0.1,0.5,0.2,1.1,0.3,1.7
			c0.4,2.1,1,4.5,1.6,7.2c0.5,2.1,1.1,4.3,1.7,6.5v0c0.3,1.2,0.6,2.3,0.9,3.5c1.4,5.1,2.7,9.9,3.5,13.2c0.3,1.4,0.6,2.4,0.7,3.2
			c0.1,0.4,0.1,0.7,0.1,0.8c0,0.2,0,0.6,0,1.1c0,1.4-0.1,3.7-0.1,6.4v0c0,2.2,0,4.5,0,6.9c0,0.5,0,0.9,0,1.4c0,1.2,0,2.4,0.1,3.5
			c0.1,3.5,0.3,6.1,0.6,6.5c1.1,1.1,5,2.8,5,2.8L635.5,700.3z"/>
		
			<linearGradient id="SVGID_1_" gradientUnits="userSpaceOnUse" x1="2.7336" y1="-566.5466" x2="18.8649" y2="-566.5466" gradientTransform="matrix(1 0 0 1 603.1801 1125.3201)">
			<stop  offset="0" style="stop-color:#070218"/>
			<stop  offset="1" style="stop-color:#41134A"/>
		</linearGradient>
		<path style="fill:url(#SVGID_1_);" d="M606.2,528l2.2,11.4c0,0-3.1,14.9-2.4,20.5s10.4,29.6,10.4,29.6l5.6-0.7
			c0,0-13.8-22-15.2-28.7S611,540,611,540s-0.9-0.2-1.6-1.2C608.7,537.7,606.2,528,606.2,528z"/>
		<path style="fill:#472212;" d="M587.3,626.1c-1.5,0-3,0.3-3.9,0.8c-0.2,0.1-0.5,0.3-0.7,0.4c-1.7-0.3-3.4-0.6-5-0.9c0,0,0,0,0,0
			c3.9-0.1,5.4-0.4,7.9-0.6C586.2,626,586.8,626,587.3,626.1z"/>
		<path style="fill:#02080F;" d="M607.3,614.7c-0.6,1.2-1.3,2.1-1.3,2.1c0.3-0.8,0.1-1.6-0.3-2.2c-2.5-3.6-15-4.4-15.7-5.1
			c-0.3-0.3-1.6-2.7-3.2-5.9c-3-5.8-7.1-14-8.3-16.5c1.4,2.8,7,13.2,10.9,15.8c0.6,0.4,1.1,0.6,1.5,0.6c0.8,0,1.6-0.5,2.3-1.3
			c2.9-3.2,4.5-11.5,4.5-11.5l0.8,9.4c0,0-1.7,0.9-3.5,1.9c-1.8,1.1-3.7,2.3-4.2,3.2c-0.9,1.7,0.8,3.4,0.8,3.4s6.2-0.3,11,0
			c2.2,0.2,4.2,0.5,4.9,1.1c0.1,0.1,0.2,0.1,0.2,0.2C608.9,611.2,608.2,613.2,607.3,614.7z"/>
		<path style="fill:#6B8744;" d="M667.8,541.9c0,0-38.9,36.2-74.6,37.5c-8.5,0.3-16.8-1.4-24.4-6l-12.5-7.6l36.4-19.4l-17,11.7
			l69-16.7l-0.1,0.3l-1.4,6.2L667.8,541.9z"/>
		<path style="fill:#4B5E2A;" d="M667.9,542.1c0,0-39,36-74.7,37.3c25.5-2.4,33.5-29.6,33.7-30.3l-0.7,7.8l18.5-15.2l-1.4,6.2
			L667.9,542.1z"/>
		<path style="fill:#4B5E2A;" d="M635.6,570.7c18.9-1.5,24.5-13.3,24.5-13.3L635.6,570.7z"/>
		<path style="fill:#472212;" d="M568.5,624.9c0.1-0.2,4.9-5.6,4.8-10.2v0c0.3,1.7,0.2,3.3-0.5,4.5c-0.8,1.3-0.1,2.5,1.3,3.4
			L568.5,624.9z"/>
		<path style="fill:#4B5E2A;" d="M600.1,574.6c-9.1,3.6-17.3-4.4-17.3-4.4l16.3-1l-6.8-1.7c0,0,6.4,1.7,13.2-0.7
			c6.8-2.4,10.2-7.5,10.2-7.5S608.6,571.2,600.1,574.6z"/>
		<path style="fill:#02080F;" d="M615.6,602.2c-2.2,4.6-4.5,9.5-6.3,13.7l-1.9-1.1c0,0,0,0,0,0c0-0.1-0.1-1.2-0.6-2.5
			c-0.6-1.5-1.8-3.1-4-3.6c2.2,0.2,4.2,0.5,4.9,1.1c1-2.6,2-5.3,2.8-7.7c0.2-0.5,0.4-1,0.5-1.5L615.6,602.2z"/>
		<path style="fill:#472212;" d="M573.1,614.2c-0.8,0.5-1.7,1.4-2.4,2.3c0.5-4.2,0-8.6-4-10.3c-2-0.8-3.4-1.3-4.5-1.5l-0.6-1.7h0
			c2.7,0.9,7.3,1.6,7.3,1.6S572.2,609.6,573.1,614.2z"/>
		<path style="fill:#6B8744;" d="M580.8,599.3c0,0-1,5.1-6.8,8.8c-10.4,6.8-28.4-7.1-31.7-9.7c-0.3-0.3-0.5-0.4-0.5-0.4s0,0,0,0
			l4.1,0.7l-9.1-20.3c0.1,0.1,4.2,4.8,12.2,9.5c3.7,2.2,12.4,5.5,18.5,7.8c3.8,1.4,6.5,2.4,6.5,2.4l-2,1.4L580.8,599.3L580.8,599.3z
			"/>
		<path style="fill:#4B5E2A;" d="M580.8,599.3c0,0-1,5.1-6.8,8.8c-10.4,6.8-28.4-7.1-31.7-9.7c0,0,8.7,6.1,17.3,6.2
			c8.6,0.1,9.3-0.5,9.3-0.5l-7.1-1.7C561.9,602.4,575.4,604.1,580.8,599.3z"/>
		<path style="fill:#6B8744;" d="M599.1,588.5c23,17.3,65.3-2.7,65.3-2.7H650l26.4-12.2c0,0-30.7-0.8-51.8,3.1
			C603.4,580.7,599.1,588.5,599.1,588.5z"/>
		<path style="fill:#4B5E2A;" d="M599.5,588.5c13,4.7,21.3,0,21.3,0l-2.2,4.3c0,0,9.4,1.2,20.9-0.7c11.5-2,25-6.3,25-6.3l-9.6,9.8
			l5.3-2c0,0-23,16.5-40.8,14.1C601.5,605.4,599.5,588.5,599.5,588.5z"/>
		<path style="fill:#4B5E2A;" d="M640.8,582.4c0,0,0.3,3.4,9.1,3.4s26.4-12.2,26.4-12.2L640.8,582.4z"/>
	</g>
	<path style="opacity:0.56;fill:#0C203D;enable-background:new    ;" d="M660.1,557.4l-24.5,13.3
		C654.5,569.2,660.1,557.4,660.1,557.4z"/>
	<path style="opacity:0.56;fill:#0C203D;enable-background:new    ;" d="M660.1,557.4l-24.5,13.3
		C654.5,569.2,660.1,557.4,660.1,557.4z"/>
</g>
<g>
	<path style="fill:#6B8744;" d="M751.8,479.5l1.4-0.3l2.3-0.5l124-26.1l-10.6,10.9l51.7-9.8c0,0-0.1,0.3-0.3,0.8
		c-2.4,5.8-19.7,43.4-71.8,59.1l0,0c-2.6,0.8-5.3,1.5-8.1,2.2c-51.6,12.3-90.2,1.1-90.2,1.1l10.8-3.5L751.8,479.5z"/>
	<path style="fill:#6B8744;" d="M815.4,457.7l30.6-18.1c0,0-3.8,22.1-17.8,21.3C822.7,460.5,815.4,457.7,815.4,457.7z"/>
	<path style="fill:#4B5E2A;" d="M751.8,479.5c9.7-2.5,13.8-3.5,14.8-3.7c-1.7,0.5-12.3,3.1-13.4,3.4l2.2-0.5l19.5-0.3l74.8-1.1
		c0,0-1,17.3-1.1,19.8c-0.1,2.5,6.8-21.9,6.8-21.9l64.7-20.8c-2.3,5.6-18.4,40.5-65.8,57.1c-2,0.7-4,1.4-6.1,2h0
		c-2.6,0.8-5.3,1.5-8,2.2c-51.6,12.3-90.2,1.1-90.2,1.1l10.8-3.5C760.9,513.3,718.7,487.9,751.8,479.5z"/>
	<path style="fill:#4B5E2A;" d="M751.8,479.5c9.7-2.5,13.8-3.5,14.8-3.7c-1.7,0.5-12.3,3.1-13.4,3.4l2.2-0.5l19.5-0.3
		c-2.1,14.5,26.2,35.5,26.2,35.5l-4.2-9.9c0.2,0.2,2.9,3.5,16.9,8.5c10.7,3.8,26.2,3.3,40.5-1.1c-2,0.7-4,1.4-6.1,2h0
		c-2.6,0.8-5.3,1.5-8,2.2c-51.6,12.3-90.2,1.1-90.2,1.1l10.8-3.5C760.9,513.3,718.7,487.9,751.8,479.5z"/>
	<path style="opacity:0.2;fill:#6F4459;enable-background:new    ;" d="M830.6,633.1c0,0-0.1,0-0.1,0
		C830.6,633.1,830.6,633.1,830.6,633.1C830.6,633.1,830.6,633.1,830.6,633.1z"/>
	<path style="fill:#512F1E;" d="M797,525.8c19.6-3.1,30.1-36.4,30.1-36.4s-2.7,14.4-10,25.7c-0.3,0.4-0.6,4.6-0.9,5
		c-0.3,0.4-0.6-1.7-0.9-1.3c-0.4,0.5-0.6-0.3-1,0.1l-1,8.6l-1.4-6c-2.5,2.5-5.4,4.5-8.7,5.7c-1.9,0.7-3.9,1-6,1.1l-0.7-1.7l-0.1,1.7
		c-0.3,0,0.1,1.8-0.1,1.8l-1.9-3.5l-4.9-0.3l-0.1,1c-22-5.7-40.4-33.6-40.9-34.3C749.1,493.8,774.8,529.3,797,525.8z"/>
	<path style="fill:#512F1E;" d="M764.4,655.3c0,0,0-0.1,0-0.2c0-0.1,0-0.2,0.1-0.3c0-0.1,0-0.1,0.1-0.2c0-0.1,0-0.2,0.1-0.3
		c0,0,0,0,0,0c0,0,0-0.1,0-0.1c0.1-0.2,0.1-0.5,0.2-0.7c0,0,0,0,0-0.1c0-0.1,0.1-0.2,0.1-0.3c0-0.1,0.1-0.3,0.1-0.4
		c0-0.2,0.1-0.4,0.2-0.6c0,0,0,0,0,0c0-0.1,0-0.2,0.1-0.3c0-0.1,0.1-0.2,0.1-0.3c0-0.2,0.1-0.4,0.2-0.6c0.1-0.2,0.1-0.4,0.2-0.7
		c0-0.1,0-0.1,0.1-0.2l0,0c0,0,0,0,0,0l0.2-0.7l0.7-2.6l0.5-1.9l0.3-1c2.4-8.7,5.6-20.5,8.6-30.4c0.2-0.8,0.5-1.6,0.7-2.5
		c0-0.1,0.1-0.2,0.1-0.3c0.7-2.3,1.4-4.4,2-6.4c0-0.1,0.1-0.2,0.1-0.3c0-0.1,0.1-0.2,0.1-0.3c0-0.1,0.1-0.2,0.1-0.3c0,0,0,0,0,0
		c0,0,0-0.1,0-0.1c0-0.1,0-0.1,0.1-0.2c0,0,0,0,0-0.1c0,0,0,0,0,0c0-0.1,0.1-0.3,0.1-0.4c0-0.1,0.1-0.3,0.1-0.4
		c0-0.2,0.1-0.3,0.2-0.5c0-0.1,0.1-0.3,0.1-0.4l0.1-0.4c0.1-0.4,0.3-0.8,0.4-1.2c0.5-1.4,1-2.5,1.4-3.4c0.8-1.7,1.6-3.4,2.4-5
		c1.4-2.8,2.9-5.6,4.3-8.3c0,0,0,0,0,0l0-0.1c1.1-2,2.1-4,3.1-5.9l0,0c0,0,0-0.1,0.1-0.1c0.4-0.7,0.8-1.5,1.1-2.2
		c0.2-0.4,0.4-0.7,0.5-1c0.1-0.2,0.2-0.3,0.2-0.5c0.3-0.5,0.5-1,0.7-1.5c0.2-0.5,0.5-1,0.7-1.5c0.2-0.5,0.4-1,0.6-1.4
		c0.4-1,0.8-2,1.2-3c0.1-0.3,0.2-0.7,0.3-1.1c0.1-0.4,0.1-0.8,0.2-1.2c0.1-1.2,0.2-2.7,0.1-4.4c0-0.3,0-0.6,0-0.9
		c0-1-0.1-2.1-0.1-3.2c0-0.4,0-0.9-0.1-1.4c0-0.5-0.1-0.9-0.1-1.4c0,0,0-0.1,0-0.2c0,0,0-0.1,0-0.1c0,0,0-0.1,0-0.1
		c0-0.1,0-0.2,0-0.3v-0.1c0-0.5-0.1-1-0.1-1.5c0-0.2,0-0.4-0.1-0.6c0-0.1,0-0.2,0-0.4s0-0.2,0-0.4c-0.4-4-0.8-8.4-1.3-12.8
		c-0.2-1.9-0.4-3.8-0.7-5.7c0,0-0.1-0.5-0.2-1.3c0-0.1,0-0.3,0-0.5c0-0.2-0.1-0.5-0.1-0.7c0,0,0,0,0,0v0c0-0.3-0.1-0.6-0.1-1
		c0,0,0-0.1,0-0.1c0-0.1,0-0.2,0-0.3c0-0.3-0.1-0.5-0.1-0.8c-0.1-0.7-0.2-1.5-0.2-2.1c-0.6-4.7-1.1-9.2-1.5-13
		c0-0.4-0.1-0.7-0.1-1.1c-0.5-5.3-0.7-9.3-0.4-11.2c1.4-8,9.3-19.4,9.5-19.5c-0.1,0.2-9.6,17.2-7.8,20c0.9,1.3-0.1,2.2,0.4,8.9v0
		c0,0.2,0,0.4,0,0.6c0.1,1.7,0.3,3.7,0.7,6.2c0,0,0,0,0,0v0c0,0,0,0,0,0c0,0,0,0.1,0,0.1c0,0,0,0,0,0.1c0,0,0,0.1,0,0.1
		c0,0.1,0,0.2,0.1,0.4c0,0,0,0,0,0.1c0,0,0,0.1,0,0.1l0,0.1c0,0.1,0,0.1,0,0.2c0.1,0.9,0.3,1.9,0.5,2.8c0,0,0,0,0,0
		c0.5,2.5,1.1,5.1,1.8,7.6c0.2,0.9,0.5,1.7,0.8,2.6c0.4,1.4,0.9,2.8,1.4,4.1c0.4,1,0.8,2,1.3,3c1.7,3.6,3.6,6.4,5.8,7.9
		c0.1,0.1,0.2,0.1,0.3,0.2c0.1,0.1,0.2,0.1,0.3,0.2c0.1,0.1,0.2,0.1,0.3,0.2c0.1,0.1,0.3,0.1,0.5,0.2c0.2,0.1,0.3,0.1,0.5,0.2
		c1.3,0.4,3.4,0.5,5.9,0.3c0.3,0,0.6,0,0.8-0.1c1.4-0.1,3-0.3,4.8-0.5c0.5-0.1,1-0.1,1.4-0.2c0.3,0,0.6-0.1,0.8-0.1
		c0.2,0,0.4-0.1,0.7-0.1c0,0,0,0,0,0c3.8-0.6,8-1.4,12.4-2.4c0,0,0,0,0.1,0c0,0,0,0,0,0c4.3-1,8.9-2.1,13.4-3.3
		c0.7-0.2,1.3-0.4,2-0.5h0c5.2-1.4,10.3-2.9,15.1-4.4h0c0.8-0.3,1.6-0.5,2.4-0.8c4.3-1.4,8.1-2.8,11.3-4.1c0,0,0,0,0,0
		c0.8-0.3,1.5-0.6,2.2-0.9c0.5-0.2,1-0.4,1.4-0.7c1.4-0.7,2.5-1.3,3.3-1.8c5-3.5,8.8-9,11.5-13.9c2.5-4.7,4-8.8,4.4-9.8
		c0.6-1.4,6.9-5.1,11-7.4c1.8-1,3.1-1.7,3.3-1.8c-0.2,0.1-1.3,0.9-2.9,2.2c-2.2,1.7-5.5,4.4-8.7,7.5c-2.1,2.1-4,5.7-5.7,9.6
		c-3,6.6-9.4,10.9-9.6,16c0,0.5-1,0.5-1.7,0.8c-0.5,0.2-1,0.4-1.6,0.6c-0.7,0.3-1.5,0.6-2.4,0.9c-0.2,0.1-0.5,0.2-0.8,0.3
		c-0.6,0.2-1.2,0.4-1.9,0.7c0,0,0,0,0,0s0,0,0,0c-1,0.4-2.1,0.7-3.2,1.1c-0.5,0.2-0.9,0.3-1.4,0.5c-0.1,0-0.2,0.1-0.3,0.1
		c-0.3,0.1-0.6,0.2-1,0.3c-2,0.7-4.1,1.4-6.2,2.1c-0.5,0.2-1,0.3-1.5,0.5c-0.1,0-0.2,0.1-0.3,0.1c-0.1,0-0.2,0.1-0.3,0.1
		c-0.3,0.1-0.6,0.2-0.8,0.3c-0.1,0-0.1,0-0.2,0.1c-1.6,0.5-3.3,1.1-4.9,1.6c-0.4,0.1-0.8,0.3-1.2,0.4c-3.7,1.2-7,2.4-9.6,3.3
		c-0.3,0.1-0.5,0.2-0.8,0.3c-0.4,0.2-0.8,0.3-1.2,0.5c-0.6,0.2-1,0.4-1.5,0.6c-0.1,0.1-0.3,0.1-0.4,0.2c-0.3,0.1-0.6,0.3-1,0.5
		c0,0,0,0,0,0c-0.2,0.1-0.4,0.2-0.6,0.3c-1.4,0.7-3.1,1.7-5.1,2.8c-0.3,0.1-0.5,0.3-0.8,0.5c0,0,0,0-0.1,0c-0.5,0.3-1,0.6-1.5,0.9
		c-0.2,0.1-0.4,0.2-0.5,0.3c-0.5,0.3-1,0.6-1.5,0.9c-0.7,0.4-1.4,0.8-2,1.2c-0.3,0.2-0.5,0.3-0.8,0.5h0c-0.3,0.2-0.5,0.3-0.8,0.5
		c-2,1.2-4,2.5-5.9,3.7c-0.3,0.2-0.6,0.4-0.9,0.6c-1.6,1.1-3.2,2.2-4.5,3.2c-0.3,0.2-0.5,0.4-0.8,0.6c-1.5,1.1-2.8,2.2-3.7,3.1
		c-0.5,0.5-1,1.1-1.6,1.8c-0.4,0.5-0.8,1-1.2,1.6c-0.5,0.7-1.1,1.5-1.7,2.4c-2.8,4.1-6,9.5-9.1,14.9c-1.4,2.4-2.7,4.8-3.9,7.1
		c-1.4,2.6-2.6,4.9-3.6,7c-0.5,1.1-1,2.1-1.4,2.9c-0.6,1.2-1,2.2-1.2,2.8c-2.7,8.1-4.2,15-4.9,20.9c-0.2,1.8-0.3,3.5-0.4,5.1
		c-0.5,12.4,2.9,19.2,5.1,22.2c0.2,0.2,0.3,0.4,0.5,0.6c0.7,0.9,1.2,1.3,1.2,1.3l-3.6,0.9l-5.9,1.4l-5.2,1.3l-2,0.5l-0.4,0.1
		l-0.8,0.2h-12.2C764.1,656.7,764.2,656.2,764.4,655.3z"/>
	<path style="fill:#512F1E;" d="M879.9,525.1c5.7,2,11.6,3.6,17.5,4.2c6.7,0.7,13.4,0.3,19.8-2c0.7-0.2,1.4-0.5,2.1-0.9
		c18.6-9.4,26.6-52.7,27.8-53.3c0.8-0.4-2.5,17.8-4.8,30.2c-1.2,6.3-2.1,11.1-2.1,11.1l-3.2,2.6l-2,3.2l-1,3.6l-0.5-3.2l-2.4,19.9
		c0,0,0-13.3-0.5-13.3c-0.4,0.1-8.7,6.9-21.1,7.5c-0.5,0-1.1,0-1.6,0c-7.5,0-15.2-1.8-22.6-4.7c-22.2-8.4-41.7-25.4-42.8-26.4
		C843.5,504.5,859.9,517.9,879.9,525.1z"/>
	<path style="opacity:0.4;fill:#281810;enable-background:new    ;" d="M917.2,527.3c0.7-0.2,1.4-0.5,2.1-0.9
		c2.6-0.3,5.1-0.9,7.3-1.9c6.5-2.7,11.8-12.2,15.6-21.3c-1.2,6.3-2.1,11.1-2.1,11.1l-3.2,2.6l-2,3.2l-1,3.6l-0.5-3.2l-2.4,19.9
		c0,0,0-13.3-0.5-13.3c-0.4,0.1-8.7,6.9-21.1,7.5c-4.3-1.7-8.5-3.6-12.1-5.4C904.2,530,910.9,529.5,917.2,527.3z"/>
	<path style="fill:#512F1E;" d="M879.9,525.1c1.7,1.7,3.5,3.4,5.3,5c-22.2-8.4-56.8-36.2-58-37.3
		C828.3,493.7,859.9,517.9,879.9,525.1z"/>
	<path style="fill:#6B8744;" d="M895.6,487.2c-1.4-14.8,22.6-15.5,22.6-15.5s3,0,7.6,0.2c16.1,0.7,51.6,3.7,46.7,17.4
		c-2.6,7.2-11.2,11.6-20.5,14.4c-13.6,4.1-28.8,4.6-28.8,4.6l9,2.1c0,0-5.9,3-21,0C890,506.2,895.6,487.2,895.6,487.2z"/>
	<path style="opacity:0.56;fill:#3A3F26;enable-background:new    ;" d="M895.6,487.2c-1.4-14.8,22.6-15.5,22.6-15.5s3,0,7.6,0.2
		l-4.8,19.5c0,0,0,4.9,7.8,9.2c3.7,2,12,4.7,23.2,3.2c-13.6,4.1-28.8,4.6-28.8,4.6l9,2.1c0,0-5.9,3-21,0
		C890,506.2,895.6,487.2,895.6,487.2z"/>
</g>
<path style="opacity:0.56;fill:#0C203D;enable-background:new    ;" d="M648.5,567.5c0.4-0.2,0.7-0.4,1.1-0.5
	c5.7-2.9,8.6-6.7,9.8-8.5c0.1-0.1,0.1-0.2,0.2-0.3c0.3-0.5,0.4-0.8,0.4-0.8l0,0l0,0l-24.5,13.3l0,0l0,0
	C640.9,570.3,645.2,569.1,648.5,567.5z"/>
<path style="fill:#6B8744;" d="M846,439.5l-30.6,18.1c0,0,7.2,2.9,12.8,3.2C842.2,461.6,846,439.5,846,439.5z"/>
<path style="opacity:0.56;fill:#0C203D;enable-background:new    ;" d="M830.6,633.1C830.6,633.1,830.6,633.1,830.6,633.1
	c0,0-0.1,0-0.1,0C830.6,633.1,830.6,633.1,830.6,633.1z"/>
<path style="opacity:0.56;fill:#0C203D;enable-background:new    ;" d="M424.3,613.1l-25.6,0.8C414.8,620.4,424.3,613.1,424.3,613.1
	z"/>
<path style="opacity:0.56;fill:#0C203D;enable-background:new    ;" d="M424.3,609.1l-25.6,0.8C414.8,616.4,424.3,609.1,424.3,609.1
	z"/>
<path style="opacity:0.56;fill:#0C203D;enable-background:new    ;" d="M424.3,609.1l-25.6,0.8C414.8,616.4,424.3,609.1,424.3,609.1
	z"/>
<path style="fill:#0C203D;" d="M0,647.8"/>
<path style="fill:#0C203D;" d="M61,657.3"/>
<g>
	<g>
		<polygon style="fill:#143362;" points="884.9,722.7 879.7,722.8 880.4,730.6 820.6,732.5 827,715.5 862.4,712.6 862.2,717 		"/>
		<polygon style="opacity:0.5;fill:#01000A;enable-background:new    ;" points="827,715.5 846.9,716.2 845.1,731.2 820.6,732.5 		
			"/>
		<polygon style="fill:#4A6AB2;" points="827,715.5 846.9,716.2 862.4,712.6 		"/>
		<polygon style="fill:#000010;" points="841.8,716 846.8,718.3 850.4,715.4 		"/>
	</g>
	<g>
		<polygon style="fill:#143362;" points="698.9,734.2 702.9,700.6 752.7,695.7 755.1,703.1 760.7,701.4 774.6,731.7 736.8,731 
			731.2,734.6 		"/>
		<polygon style="fill:#143362;" points="698.9,734.2 702.9,700.6 752.7,695.7 755.1,703.1 760.7,701.4 774.6,731.7 736.8,731 
			731.2,734.6 		"/>
		<polygon style="fill:#4A6AB2;" points="755.1,703.1 743.1,705.8 751.9,705.9 760.7,701.4 		"/>
		<polygon style="opacity:0.5;fill:#01000A;enable-background:new    ;" points="700.5,721.3 699.3,731.2 730.9,730 738.8,722.9 
			756.6,723.7 769.5,720.6 768.5,718.3 756,721.6 739.5,720.1 730.8,721.9 		"/>
		<polygon style="opacity:0.5;fill:#01000A;enable-background:new    ;" points="701.7,710.9 730.1,713.9 743,710.4 753.4,712.4 
			763.8,708.1 763.4,707.3 753.4,711.7 742.1,709.8 730,712.8 701.9,709.2 		"/>
		<polygon style="fill:#251024;" points="715.2,726 714.2,724.5 715.2,723.3 716.6,725.1 		"/>
		<polygon style="fill:#251024;" points="753.2,727.3 754.3,725.7 755.6,726.6 753.7,728.3 		"/>
		<polygon style="fill:#251024;" points="742.2,729.4 739.1,729.4 739.2,727.7 741.6,726.8 		"/>
		<polygon style="fill:#251024;" points="742.8,729.8 742.8,728.9 743.9,728.9 743.4,729.8 		"/>
		<polygon style="opacity:0.5;fill:#01000A;enable-background:new    ;" points="743.1,705.8 736.8,731 758.6,731.3 751.9,705.9 		
			"/>
		<polygon style="fill:#514D8A;" points="750.8,705.9 753.2,705.3 752,706.3 		"/>
		<polygon style="fill:#000010;" points="753.2,731.2 755.1,718.2 766,712.9 766,713.7 755.3,718.3 754.1,729 754.3,731.3 		"/>
	</g>
</g>
<g>
	<path style="fill:#153815;" d="M1061.1,722.2L1061.1,722.2c0.3-2.7-62.8,12.5-65.5,12.5l0,0l0,0c-3.1,0.5-4.8,0.7-4.8,0.7
		l-24.7,5.9c-52.3-10.9-160-45.3-179.7-53.8l7.7-36.2l-30.1,4.3l-2.5,31l-54.2,4.5l19.9,7.3l-59.7-0.9l35.2,12.8l-90.9,13.3
		c0.5-1.5,0.9-3,1.3-4.4c0.1-0.3,0.3-0.6,0.4-0.9c0.1-0.3,0.2-0.5,0.2-0.8c0.1-0.3,0.2-0.6,0.3-0.9c0.4-1.3,0.8-2.5,1.1-3.6
		c1.1-3.5,2.1-6.4,2.8-7.7c0.2-0.4,0.4-0.8,0.5-0.8c0,0,0-0.1,0-0.1c0.3-0.2,0.7-0.3,1.2-0.9c0,0,0,0,0,0c3-0.7,6-1.8,8.2-2.7
		c0,0,6.5-1,7.4-1.5c-7.1-0.8-21-2.2-26.6-1.9c0,0-0.3-1.6-0.3-1.6c-1.9,0.1-1.8-0.3-2.8-0.3c0,0-1.5-0.8-1.5-0.8
		c-0.2,0-0.4,1.5-0.6,2.4h-0.2c-0.3-1.2-1.1-2.6-1.1-1.3c0,0-0.9,0.1-0.9,0.1c-4,0-6.6,0.1-10.6,2.3l-4.1,1.1
		c2.1,2.5,4.8,5.2,5.3,5.5c0.5,0.3,6.2,0.1,9.5-0.1l-0.1,2.6c-0.3,3.5-1.5,8.4-2.4,13.2c-0.4,1.8-0.7,3.6-1,5.3c0,0,0,0,0,0
		l-122.2,17.8l-9.4-3l27-58.2l0,0l-5.5,0.1l-1.2-0.2l-61.7,45.1l-67.4-21.7c0.2-0.3,0.4-0.6,0.6-0.9c0.7-1.2,1.4-2.4,2.1-3.7
		c2.2-3.9,4.4-7.8,6-10.2c0.9-1.3,1.6-2.2,2-2.4c2.2-1,32-4.4,32.7-4.7c-0.6,0.1-18.7-2.2-25-1.7c0,0-2.7-0.3-2.7-0.3
		c-0.4,0-2.1-1.3-2.4-1.3c-0.9,0-2.1-0.5-3.8-0.6c-10.3-0.4-29.7,4.1-29.7,4.1s3.9,1.2,8.8,2.3c1.6,0.4,3.9,0.1,4.9-0.4
		c0.7,0.6,1.7,1.3,3.2,1.9c0.4,0.2,0.9,0.2,1.4,0.2c0.1,0.1,0.2,0.2,0.3,0.3c0.3,0.3-0.5,2.7-1.8,5.9c-0.4,1-0.8,2.1-1.3,3.2
		c-0.2,0.4-0.4,0.8-0.5,1.2c-0.6,1.5-1.3,3-1.9,4.4l-141.2-45.4l-10.2,1.6l31.3-26.2H224l-64.7,33.3l-39.1,7l19.6-30.1h-5.6
		L2.6,744.1l-2,3.8l1038.5,0.8l0.5-0.5l160.3,0.5v-90C1154,672.9,1109.9,711,1061.1,722.2z"/>
</g>
<path style="fill:#603E2A;" d="M492.5,104.5l-0.1,5.5c0,0,26,55.7,48.7,98c2,3.7,4,7.4,5.9,10.9c3,5.4,5.8,10.4,8.5,14.8
	c4,6.6,7.5,12,10.4,15.7c3.1,4,6.2,8.4,9.2,13.1l0,0c17,26.3,31.7,60.7,33,63.5c1.3,2.7,14.4,40.7,16.2,85.2
	c0.4,8.6,0.3,17.5-0.4,26.5c-0.4,4.9-1,10.3-2,16.1c0,0,0,0,0,0c-3.4,22-10.3,50-17.3,77.7c-0.1,0.5-0.2,0.9-0.3,1.4l-1.6,6.3
	c-1.8,7-3.5,13.9-5.1,20.6c0,0,0,0,0,0c-0.6,2.3-1.2,4.7-1.7,7c0,0,0,0,0,0c-5.2,21.3-9.5,40.6-11.2,54.3c-0.1,1.1-0.2,2.1-0.3,3.1
	v0c-0.4,4.2-0.5,7.8-0.2,10.7c0.2,1.6,0.4,2.9,0.8,4c0.2,0.6,0.4,1.3,0.6,2c0.1,0.3,0.2,0.7,0.3,1c0.1,0.4,0.3,0.9,0.4,1.3
	c0.2,0.6,0.4,1.3,0.6,2c1.5,5.4,3.1,11.9,4.6,18.7c0.2,0.8,0.4,1.7,0.6,2.5c0,0.1,0.1,0.3,0.1,0.4c0.1,0.6,0.3,1.2,0.4,1.9
	c0.3,1.4,0.6,2.7,0.8,4.1c0.3,1.5,0.6,3,0.9,4.5c0.3,1.5,0.6,3,0.8,4.5c0.2,0.9,0.3,1.8,0.5,2.8c1.9,10.5,3.3,20.3,4,27.5
	c0,0,0,0,0,0c0,0,0,0,0,0c0.1,0.8,0.1,1.5,0.2,2.2c0,0.4,0.1,0.7,0.1,1c0.1,1,0.1,1.9,0.1,2.7c0,0.2,0,0.5,0,0.7c0,0.3,0,0.6,0,0.8
	c0,1.8-0.2,3-0.6,3.4c-2.5,2.6-13.1,8.5-16.6,10.4c-0.7,0.4-1.2,0.6-1.2,0.6l-6-6.6l-39.5,15.4l-2.6,1l-1.7,5.2l103.2-1.7
	c0,0,0,0,0,0s0,0,0,0l31.3-0.5l2.4,0l19.7-0.3l3-17.1c0,0-41.5-26.8-53.2-102.8c-0.2-1.1-0.3-2.2-0.5-3.4c-0.2-1.7-0.4-3.5-0.6-5.3
	l0,0c-0.2-1.9-0.3-3.9-0.4-5.9c0-0.5-0.1-1-0.1-1.5c-0.1-1.2-0.1-2.4-0.2-3.7c-0.1-1.3-0.1-2.6-0.1-3.9c-0.6-26.5,2.7-58.2,7.5-89
	c0.8-5,1.6-10,2.5-15c1.8-10.4,3.7-20.5,5.6-30.2c8.7-43.9,17.9-77.8,17.9-77.8l-5-13.8l-7.9,7.6c0,0-1.3-4.1-3.3-10.6
	c-1.4-4.7-3.3-10.5-5.3-16.9c-0.2-0.7-0.4-1.5-0.7-2.2c-7.3-23.5-16.5-53.1-18.4-57.9c-1.7-4.5,33.8-38,66.3-68.6
	c26-24.4,50-47,51.7-51.5c3.7-10.2,18.1-45.9,18.1-45.9l-9.1,8.3c0,0-6.9,24.1-18.4,38.4c-4.1,5.1-19.3,19.7-38,36.3
	c-4.2,3.7-8.6,7.6-13.1,11.4l0,0c-20.5,17.6-42.8,35.6-58.5,45.5c-8.2,5.2-14.7,8.2-18.1,7.8c-5.4-0.6-14.6-10.8-23.3-22.4
	c-11.2-14.9-21.7-32.2-22.5-34.9c0-0.1-0.1-0.4-0.1-0.7c0-1.7,0.6-5.6,1.7-10.9c5.3-26.4,21-88.1,21-88.1l-5.6-0.1
	c0,0-17.4,74.1-25.1,87.9c-0.6,1-1.1,1.7-1.5,2c-0.7,0.5-2.1-0.4-4-2.5C536.7,192.9,492.5,104.5,492.5,104.5z"/>
<path style="opacity:0.4;fill:#281810;enable-background:new    ;" d="M584.5,624.2L584.5,624.2c2.5,6.5,6.4,12.3,11.9,10
	c11.4-4.6,7-28.9,7-28.9s-0.3,19.4-10,20.8c-3.8,0.6-6.6-1.8-8.5-4.9C584.7,622.2,584.6,623.2,584.5,624.2z"/>
<path style="opacity:0.42;fill:#11121E;enable-background:new    ;" d="M635.2,747.4l31.3-0.5c-5.1-15.8-50.8-25-52.2-25.2
	C615.5,722.4,653.9,744.9,635.2,747.4z"/>
<path style="opacity:0.42;fill:#11121E;enable-background:new    ;" d="M639.3,580.1c0.1,0.7,0.6,5,1.1,11.4
	C640.4,587.4,640.1,583.5,639.3,580.1z"/>
<path style="opacity:0.4;fill:#281810;enable-background:new    ;" d="M613.2,692.5c0.5-0.1,13.1-16.5,20.6-23.4
	c22.2,6,43.3,60.4,43.2,64.8c-0.1,4.8-8,12.8-8,12.8l19.7-0.3l3-17.1c0,0-41.5-26.8-53.2-102.8c-0.4-2.8-0.8-5.7-1.1-8.8
	C641.1,662.4,613.6,691.5,613.2,692.5z"/>
<path style="opacity:0.42;fill:#11121E;enable-background:new    ;" d="M636,426.4c0-0.1,0.2-0.4,0.4-0.8c2.5-5,14.4-30,17.5-51.1
	c-1.4-4.7-3.3-10.5-5.3-16.9C652.6,375,636.6,424.8,636,426.4z"/>
<g>
	<path style="fill:#040F1C;" d="M363.4,570.5c0,0-3,14.4-4.1,6.4c0,0,0,0,0,0c-1.1-7.9-21.6-14-24.6-14.8c-3-0.8-12.1-2.3-12.1-2.3
		s-1.5-11.4-7.6-19.7l4.5,5.3c0,0,4.5,12.9,6.8,12.9s1.5-4.5,1.5-4.5l3.8-5.3c-0.4,0.6-4.4,6.9-0.7,9.8c3.3,2.7,26.2,10.1,31.5,11.8
		C363,570.4,363.4,570.5,363.4,570.5z"/>
	<path style="fill:#512F1E;" d="M402.8,685.5c0,0-28.2-2.2-41.2-2.9c-2.2-0.1-3.9-0.2-5-0.2c-0.5,0-1,0-1.5,0c0,0,0,0,0,0
		c-7.4,0.3-18.3,2.8-18.9,3c0.8-0.4,21.2-9.1,23.4-10.6c0.4-0.3,0.9-1.6,1.3-3.6c0.8-3.6,1.5-9.5,2.2-15.2c0.2-1.8,0.4-3.7,0.7-5.4
		c0.3-2.4,0.6-4.7,0.9-6.6c0-0.1,0-0.2,0-0.2c0-0.1,0-0.2,0-0.3c0,0,0-0.1,0-0.1c0,0,0-0.1,0-0.1c0,0,0,0,0-0.1c0-0.1,0-0.1,0-0.1
		l0-0.2c0.2-1.5,0.4-2.7,0.6-3.5c0.1-0.4,0.2-0.7,0.3-0.9c0.3-0.7,0.2-2.5-0.3-5c0,0,0-0.1,0-0.1c0,0,0,0,0,0
		c-0.1-0.6-0.2-1.1-0.3-1.7c-0.1-0.5-0.2-1-0.3-1.6v0c0,0,0-0.1,0-0.1c-0.4-1.7-0.8-3.5-1.4-5.4c-0.1-0.5-0.3-0.9-0.4-1.4
		c-1-3.6-2.3-7.4-3.7-11.1c-0.4-1-0.8-2-1.2-3c-0.7-1.6-1.4-3.2-2.1-4.7c-0.7-1.5-1.4-2.9-2.1-4.2c0,0,0,0,0,0
		c-0.2-0.4-0.3-0.6-0.3-0.6c-2.2-3.8-4.5-6.7-6.7-7.9c-3.7-2-9.5-3.5-15.3-4.7c-2.3-0.5-4.6-0.9-6.8-1.2c-7-1.1-12.7-1.6-12.7-1.6
		s-15.1-21.2-26.5-25.7c-10.3-4.1-10-2-9.9-1.6l-9-15.8c0.4,0.6,7.6,10.6,9.8,12.1c2.3,1.5,12.1,3,12.1,3s15.1,18.2,25.7,23.5
		c5.4,2.7,13.6,4.4,21.1,5.4c0.8,0.1,1.5,0.2,2.3,0.3c3.1,0.4,6,0.6,8.5,0.7c2.6,0.1,4.8,0.2,6.2,0.1c0.8,0,1.7-0.8,2.7-2.1
		c0.2-0.2,0.4-0.5,0.6-0.8c0.5-0.7,1-1.4,1.5-2.3c0.4-0.7,0.8-1.5,1.2-2.3c0.3-0.6,0.6-1.1,0.9-1.7c0,0,0,0,0,0
		c0.6-1.2,1.2-2.6,1.8-4c0,0,0-0.1,0-0.1c0.1-0.1,0.1-0.2,0.2-0.4c0.1-0.2,0.2-0.3,0.2-0.5c0,0,0,0,0-0.1c0,0,0,0,0,0
		c0.2-0.6,0.5-1.2,0.8-1.8c2.4-5.7,4.7-11.9,6.6-17.3c2.5-7.2,4.3-12.7,4.3-12.7l7.6,15.1c0,0-0.4,0.4-1.2,1.3
		c-3.5,3.8-13.7,15.7-16.9,26.2c-0.9,2.8-1.2,5.6-0.8,8.1c0,0.2,0.1,0.4,0.1,0.6c0.1,0.7,0.3,1.5,0.4,2.3c0.6,2.8,1.3,6.1,2.2,9.7
		c0.7,2.8,1.5,5.8,2.2,8.7v0c0.4,1.6,0.8,3.2,1.2,4.7c1.8,6.9,3.6,13.4,4.8,17.8c0.5,1.8,0.8,3.3,1,4.3c0.1,0.5,0.2,0.9,0.2,1.1
		c0,0.3,0,0.8,0,1.5c0,1.8-0.1,5-0.1,8.7v0c0,2.9-0.1,6.1,0,9.3c0,0.6,0,1.2,0,1.8c0,1.7,0,3.3,0.1,4.8c0.1,4.7,0.4,8.3,0.9,8.8
		c1.5,1.5,6.8,3.8,6.8,3.8s3.8-3,6.1-0.8C389.9,680.2,402.8,685.5,402.8,685.5z"/>
	<path style="fill:#603E2A;" d="M327.8,454.7l6.1,14.5c0,0,0,20.6,2.4,27.8c2.4,7.3,21.8,36.3,21.8,36.3l7.3-2.4
		c0,0-24.2-25.4-27.8-33.9c-3.6-8.5,0-27.8,0-27.8s-1.2,0-2.4-1.2C333.8,466.8,327.8,454.7,327.8,454.7z"/>
	<path style="fill:#BAD188;" d="M335.4,484.8c-20-1.4-27.4-19.1-27.4-19.1l33.3,16.6l0.4-5.7l10.6,12.2L335.4,484.8z"/>
	<path style="fill:#512F1E;" d="M379.6,556.6c-3.5,3.8-13.7,15.7-16.9,26.2c-1-1.5-2.4-2.9-4.3-4.2c0.3-0.6,0.6-1.1,0.9-1.7
		c0,0,0,0,0,0c-1.1-7.9-21.6-14-24.6-14.8c-3-0.8-12.1-2.3-12.1-2.3s-1.5-11.4-7.6-19.7l4.5,5.3c0,0,4.5,12.9,6.8,12.9
		s1.5-4.5,1.5-4.5l3.8-5.3c-0.5,0.8-4.2,6.9-0.7,9.8c3.3,2.7,26.2,10.1,31.5,11.8c2.4-5.7,4.7-11.9,6.6-17.3L379.6,556.6z"/>
	<path style="fill:#6B8744;" d="M445.9,523.7l-0.3,0.4l-0.3,0.5L445,525l-15,20l12,2.6l0.6,0.1c0,0-0.1,0.1-0.3,0.2c0,0,0,0-0.1,0
		c-0.5,0.4-1.7,1.3-3.3,2.5c0,0,0,0,0,0c-5.3,3.9-15.9,10.7-28.7,14.8c-6.8,2.2-14.1,3.5-21.6,3.3c-28.1-0.9-41.9-11.7-41.9-11.7
		c-0.7-0.1-1.3-0.3-1.9-0.4c-0.9-0.2-1.8-0.4-2.7-0.6c-0.4-0.1-0.9-0.2-1.3-0.3c-0.5-0.1-1.1-0.3-1.6-0.5c-0.4-0.1-0.7-0.2-1.1-0.3
		c-0.3-0.1-0.7-0.2-1-0.3c-0.6-0.2-1.1-0.4-1.6-0.6c-0.4-0.1-0.7-0.3-1.1-0.4c-0.2-0.1-0.4-0.1-0.6-0.2c-0.4-0.1-0.8-0.3-1.1-0.4
		c-0.2-0.1-0.5-0.2-0.7-0.3c-0.4-0.2-0.9-0.4-1.3-0.6c-4.8-2.1-9.2-4.6-13.2-7.4c-20.9-14.6-30.5-37.1-34.2-48.4c0,0,0,0,0,0
		c-1.4-4.3-2-7-2-7l90,12.4l7.9,8.9l66.4,13L445.9,523.7z"/>
	<path style="fill:#6B8744;" d="M433,545.5l9.7,1.3c0,0-0.3,0.3-0.8,0.8c-0.6,0.7-1.7,1.7-3.1,3c0,0,0,0,0,0c-1.5,1.4-3.4,3-5.8,4.7
		c-11.7,8.7-33.8,20.4-64,15.6c-12.5-2-20-7.4-24.5-14.3c-6-9.4-6.1-21.4-4.8-31.1v0c1.4-9.6,4.2-16.8,4.2-16.8l101.2,15.9l0.5,0.1
		L433,545.5z"/>
	<path style="fill:#BAD188;" d="M445.8,524.7c0,0-0.3,0.1-0.8,0.3c-4.2,1.5-24.7,8-59.4,4.1c-0.3,0-0.7-0.1-1-0.1
		c16.4-0.9,23.2-5.5,23.2-5.5l-42-0.4l3.6-4.1c0,0-6.8,2.7-14.1,2.8c-9.2-4.5-9.5-8.9-9.5-8.9l-1.7-4.2l-63-19.4l90,12.4l7.9,8.9
		l66.4,13l0.2,0.5L445.8,524.7z"/>
	<path style="fill:#6B8744;" d="M442.9,545.8c0,0-0.1,0.1-0.3,0.2c0,0,1.7,0.9,1.7,0.9c-5.6,4.1-14.3,8.3-21.8,8.7
		c-24.7,1.5-39.4-2.5-39.4-2.5l47-8.2L442.9,545.8z"/>
	<path style="fill:#512F1E;" d="M394.9,599c-1,2-4.8,9.5-7.5,14.7c-1.5,2.8-2.6,4.9-2.9,5.2c-0.8,0.8-15.9,1.5-14.2,6.5
		c0,0-3.2-4.2-1.6-6.1c1.6-1.9,14.3-1.1,14.3-1.1s1.5-1.5,0.8-3c-0.4-0.8-2.1-1.9-3.7-2.8c-1.6-0.9-3.1-1.7-3.1-1.7l0.8-8.3
		c0,0,1.5,7.3,4,10.2c0.6,0.7,1.3,1.1,2,1.1c0.4,0,0.9-0.2,1.4-0.5C388.7,610.8,393.7,601.3,394.9,599z"/>
	<path style="fill:#512F1E;" d="M377.8,602.3c0,0,1.5,7.3,4,10.2c-0.6-0.1-1.1-0.1-1.6-0.2c-1.6-0.9-3.1-1.7-3.1-1.7L377.8,602.3z"
		/>
	<path style="opacity:0.2;fill:#927482;enable-background:new    ;" d="M394.9,599c-1,2-4.8,9.5-7.5,14.7c-0.7-0.2-1.5-0.4-2.2-0.6
		C388.7,610.8,393.7,601.3,394.9,599z"/>
	<path style="fill:#6B8744;" d="M458.9,591.8c0,0-42.5,23.9-74.6,17.4c-7.7-1.6-14.7-4.8-20.5-10.6l-9.5-9.5l36.7-9.5l-17.7,6.8
		h65.2l-0.1,0.2l-2.6,5.2H458.9z"/>
	<path style="fill:#4B5E2A;" d="M445.3,592.3c0,0-28.9,23.4-61,16.9c26.4-0.1,36.3-19.2,36.6-19.8l-2.3,6.8l19.8-9.6l-2.6,5.2
		L445.3,592.3z"/>
	
		<linearGradient id="SVGID_00000109709310695746781780000008108421732460332734_" gradientUnits="userSpaceOnUse" x1="-206.8948" y1="-563.5336" x2="-190.9226" y2="-509.4343" gradientTransform="matrix(1 0 0 1 603.1801 1125.3201)">
		<stop  offset="0" style="stop-color:#B7C163"/>
		<stop  offset="1" style="stop-color:#737C38"/>
	</linearGradient>
	<path style="fill:url(#SVGID_00000109709310695746781780000008108421732460332734_);" d="M398.7,613.8c16.1,6.6,25.6-0.8,25.6-0.8
		L398.7,613.8z"/>
	<path style="fill:#4B5E2A;" d="M433.1,555.3c-11.7,8.7-33.8,20.4-64,15.6c-12.5-2-20-7.4-24.5-14.3c-0.9-0.2-1.8-0.4-2.7-0.6
		c-0.4-0.1-0.9-0.2-1.3-0.3c-0.5-0.1-1.1-0.3-1.6-0.5c-0.4-0.1-0.7-0.2-1.1-0.3c-0.3-0.1-0.7-0.2-1-0.3c-0.6-0.2-1.1-0.4-1.6-0.6
		c-0.4-0.1-0.7-0.3-1.1-0.4c-0.2-0.1-0.4-0.1-0.6-0.2c-0.4-0.1-0.8-0.3-1.1-0.4c-0.2-0.1-0.5-0.2-0.7-0.3c-0.4-0.2-0.9-0.4-1.3-0.6
		c-4.8-2.1-9.2-4.6-13.2-7.4c-20.9-14.6-30.5-37.1-34.2-48.4c12.2,25,33.4,33.3,42.5,32.5c3.8-0.3,6.9-2.4,9.3-4.6
		c3.3-6.1,7.3-11.3,7.3-11.3s-0.8,12.9,2.3,21.2l-3-4.5c-1.5,3.8-0.6,21.3,9.1,27.2c13.3,8.2,27.4,1.1,28,0.8l-7.6,6
		c0,0,20.7,4.9,39.2,1.7c6.3-1.1,12.4-3.2,17.3-6.7C429.8,557,431.6,556,433.1,555.3z"/>
</g>
<polygon style="fill:#512F1E;" points="486.5,682.8 493.5,682.4 493.4,653.3 486.2,653.2 "/>
<path style="opacity:0.4;fill:#281810;enable-background:new    ;" d="M756.6,139.8c0,0-6.9,24.1-18.4,38.4
	c-4.1,5.1-19.3,19.7-38,36.3c-4.2,3.7-8.6,7.6-13.1,11.4l0,0c0,0-32.8,41.2-45.8,45.8c-4,1.4-8.5,1-12.7-0.3
	c-8.2,5.2-14.7,8.2-18.1,7.8c-5.4-0.6-14.6-10.8-23.3-22.4c-10.1-3.8-21.8-10.7-31.8-23.2c4,6.6,7.5,12,10.4,15.7
	c3.1,4,6.2,8.4,9.2,13.1l0,0c13.5,8,32.6,19.7,38.5,24.9c9.5,8.2,22.3,19.8,24.9,53.7c2.4,31-9.8,53.7-13.7,68
	c0.2,9.3-0.4,22.3-2.9,40c0,2.7,0,4.5,0,4.7l14-27.3c0,0,0,0,0,0c0-0.1,0.2-0.4,0.4-0.8l9.7-19.1c0.6,10.5,1,29.2-1.4,44.5
	c-3.6,22.2-32.3,51.8-40,80.6c-0.1,0.5-0.2,0.9-0.3,1.4l-1.6,6.3l-2.8,11c0.7-1.5,22.9-48,32.5-49.4c4.9-0.7,3.8,10.7,1.6,22.2
	c-10.7-0.6-35.7,35.6-36.5,36.8c0,0,0,0,0,0c-0.6,2.3-1.2,4.7-1.7,7c12.1-23.9,26.3-32.5,36.4-35.5c-1.9,8.1-3.8,14.7-3.8,14.7
	s-4.8,50-13.3,76.7c-9.5,29.4-23.9,22.9-31,12.2c0.2,1.6,0.4,2.9,0.8,4c0.2,0.6,0.4,1.3,0.6,2c0.1,0.3,0.2,0.7,0.3,1
	c0.1,0.4,0.3,0.9,0.4,1.3c0.2,0.6,0.4,1.3,0.6,2c1.5,5.4,3.1,11.9,4.6,18.7c0.2,0.8,0.4,1.7,0.6,2.5c0,0.1,0.1,0.3,0.1,0.4
	c0.1,0.6,0.3,1.2,0.4,1.9c0.3,1.4,0.6,2.7,0.8,4.1c0.3,1.5,0.6,3,0.9,4.5c0.3,1.5,0.6,3,0.8,4.5c0.2,0.9,0.3,1.8,0.5,2.8
	c1.9-5.4,4.2-11.5,9.8-18c16.5-19.1,19.2-46.2,19.2-46.2s-1.1,25.5-12.8,49.5c-4.1,8.4-9.9,12.7-12.3,42.1c0,0,0,0,0,0c0,0,0,0,0,0
	c0.1,0.8,0.1,1.5,0.2,2.2c0,0.4,0.1,0.7,0.1,1c0.1,1,0.1,1.9,0.1,2.7c0,0.2,0,0.5,0,0.7c0,0.3,0,0.6,0,0.8c13.8,8,25.4,22.4,12.6,23
	c0,0,0,0-0.2,0c-2.6,0.1-5.2,0.2-7.7,0.3l7.6-0.3c-2.7,0.1-21.2,0.1-29.4-9.3c-0.7,0.4-1.2,0.6-1.2,0.6l-6-6.6
	c1.9,3.6-1.2,7.5-5.2,10.6c-19.5,4.4-29.5,5.4-34.2,4.8l-2.6,1l-1.7,5.2l103.2-1.7c0,0,0,0,0,0s0,0,0,0l31.3-0.5l2.4,0l19.7-0.3
	l3-17.1c0,0-41.5-26.8-53.2-102.8c-0.2-1.1-0.3-2.2-0.5-3.4c-0.2-1.7-0.4-3.5-0.6-5.3l0,0c-0.2-1.9-0.3-3.9-0.4-5.9
	c0-0.5-0.1-1-0.1-1.5c-0.1-1.2-0.1-2.4-0.2-3.7c-0.1-1.3-0.1-2.6-0.1-3.9c-0.6-26.5,2.7-58.2,7.5-89c0.8-5,1.6-10,2.5-15
	c1.8-10.4,3.7-20.5,5.6-30.2c8.7-43.9,17.9-77.8,17.9-77.8l-5-13.8l-7.9,7.6c0,0-1.3-4.1-3.3-10.6c-1.4-4.7-3.3-10.5-5.3-16.9
	c-0.2-0.7-0.4-1.5-0.7-2.2c-7.3-23.5-16.5-53.1-18.4-57.9c-1.7-4.5,33.8-38,66.3-68.6c26-24.4,50-47,51.7-51.5
	c3.7-10.2,18.1-45.9,18.1-45.9L756.6,139.8z"/>
</svg>
